<?xml version="1.0" encoding="UTF-8" standalone="no"?>
<svg viewBox="0 0 49 44" version="1.1" xmlns="http://www.w3.org/2000/svg" xmlns:xlink="http://www.w3.org/1999/xlink">
    <!-- Generator: Sketch 48.2 (47327) - http://www.bohemiancoding.com/sketch -->
    <title>8mobius8-logo-sm</title>
    <desc>Created with Sketch.</desc>
    <defs>
        <linearGradient x1="10.6912913%" y1="58.9578609%" x2="100%" y2="0.893059191%" id="linearGradient-1">
            <stop stop-color="#5D0819" offset="0%"></stop>
            <stop stop-color="#FFFFFF" offset="100%"></stop>
        </linearGradient>
    </defs>
    <g transform="translate(-136.000000, -951.000000)">
        <g transform="translate(140.000000, 955.000000)" fill="url(#linearGradient-1)">
            <g>
                <path d="M0.609341642,0.0166878663 C20.1805058,0.0166878663 20.8152779,0.0166878663 40.3896653,0.0166878663 C40.9579149,0.029597653 41.1222767,0.479685688 40.8785524,0.931544451 C32.1315363,16.232187 30.7555047,18.6285114 20.9475608,35.7298748 C20.7413735,36.0742936 20.2520263,36.0745524 20.0464432,35.7298748 C10.2694547,18.5773448 0.580003814,1.58681962 0.192090512,0.931544451 C-0.17183651,0.297561564 0.057685843,0.0292430004 0.609341642,0.0166878663 Z M2.40949144,1.09769757 C1.94971513,1.09769757 1.82362904,1.37415144 2.03123317,1.92705919 C10.8751483,17.4502649 11.1422679,17.9239934 20.0301615,33.4734238 C20.2900864,33.8674169 20.6032813,33.8503122 20.8470679,33.4734238 C21.7968752,31.8256267 30.9842966,15.8093775 38.9154731,1.92705919 C39.2358772,1.37415144 39.088144,1.09769757 38.4722733,1.09769757 L2.40949144,1.09769757 Z" id="Combined-Shape"></path>
            </g>
            <g transform="translate(12.849758, 3.785937)">
                <path d="M7.66084425,16.4517562 C3.43479422,16.4517562 0.00890377059,12.7708708 0.00890377059,8.23026865 C0.00890377059,3.68966646 3.43479422,0.00878111373 7.66084425,0.00878111373 C11.8868943,0.00878111373 15.3127847,3.68966646 15.3127847,8.23026865 C15.3127847,12.7708708 11.8868943,16.4517562 7.66084425,16.4517562 Z M7.66084425,14.6429885 C10.9571633,14.6429885 13.6293578,11.771916 13.6293578,8.23026865 C13.6293578,4.68862125 10.9571633,1.81754877 7.66084425,1.81754877 C4.36452522,1.81754877 1.69233068,4.68862125 1.69233068,8.23026865 C1.69233068,11.771916 4.36452522,14.6429885 7.66084425,14.6429885 Z" id="Combined-Shape"></path>
            </g>
        </g>
    </g>
</svg>