<?xml version="1.0" encoding="UTF-8" standalone="no"?>
<svg viewBox="0 0 36 36" version="1.1" xmlns="http://www.w3.org/2000/svg" xmlns:xlink="http://www.w3.org/1999/xlink">
    <g id="Mobile-Portrait" stroke="none" stroke-width="1" fill="none" fill-rule="evenodd" transform="translate(-189.000000, -109.000000)">
        <g id="linkedin-icon-black" transform="translate(189.000000, 109.000000)" fill="#1A1919">
            <g id="In-Black-0p5in-R">
                <g id="Group-5">
                    <path d="M30.677,30.676 L25.338,30.676 L25.338,22.321 C25.338,20.329 25.304,17.766 22.564,17.766 C19.785,17.766 19.361,19.937 19.361,22.179 L19.361,30.676 L14.028,30.676 L14.028,13.496 L19.146,13.496 L19.146,15.845 L19.22,15.845 C19.932,14.494 21.674,13.07 24.271,13.07 C29.678,13.07 30.677,16.627 30.677,21.254 L30.677,30.676 Z M8.008,11.149 C6.293,11.149 4.91,9.762 4.91,8.052 C4.91,6.343 6.293,4.956 8.008,4.956 C9.716,4.956 11.102,6.343 11.102,8.052 C11.102,9.762 9.716,11.149 8.008,11.149 Z M5.334,30.676 L10.679,30.676 L10.679,13.496 L5.334,13.496 L5.334,30.676 Z M33.336,0 L2.655,0 C1.19,0 0,1.162 0,2.596 L0,33.402 C0,34.836 1.19,36 2.655,36 L33.336,36 C34.804,36 35.999,34.836 35.999,33.402 L35.999,2.596 C35.999,1.162 34.804,0 33.336,0 Z" id="Fill-4"></path>
                </g>
            </g>
        </g>
    </g>
</svg>